<svg xmlns="http://www.w3.org/2000/svg" width="1019.578" height="188.846" viewBox="0 0 1019.578 188.846">
  <g id="meinvoice" transform="translate(-6004.343 -2388)">
    <g id="Group_20076" data-name="Group 20076" transform="translate(6293.525 2445)">
      <path id="Path_56338" data-name="Path 56338" d="M628.992,315.676h-2.479a6.612,6.612,0,0,1-6.609-6.615v-60.48a6.612,6.612,0,0,1,6.609-6.615h11.478a6.618,6.618,0,0,1,6.28,4.54l17.16,51.96L678.692,246.5a6.618,6.618,0,0,1,6.281-4.531H696.24a6.618,6.618,0,0,1,6.615,6.615v60.492a6.618,6.618,0,0,1-6.615,6.615h-1.9a6.607,6.607,0,0,1-6.61-6.755l1.084-50.565-17.275,52.751a6.615,6.615,0,0,1-6.287,4.557h-6.956a6.615,6.615,0,0,1-6.269-4.513l-17.871-53.3,1.448,51.027a6.609,6.609,0,0,1-6.61,6.784Z" transform="translate(-619.904 -241.939)" fill="#1877f2"/>
      <path id="Path_56339" data-name="Path 56339" d="M642.177,241.962h2.961a6.618,6.618,0,0,1,6.615,6.615v60.491a6.618,6.618,0,0,1-6.615,6.615h-2.961a6.612,6.612,0,0,1-6.609-6.615v-60.48a6.612,6.612,0,0,1,6.609-6.627Z" transform="translate(-541.784 -241.946)" fill="#1877f2"/>
      <path id="Path_56340" data-name="Path 56340" d="M665.564,241.972h27.942a6.613,6.613,0,0,1,6.609,6.615h0a6.606,6.606,0,0,1-6.61,6.609H668.039q-12.1,0-12.1,9.639a6.634,6.634,0,0,0,2.766,5.952,11.317,11.317,0,0,0,7.077,2.046h14.249a60.936,60.936,0,0,1,10.56.82,19.568,19.568,0,0,1,8.671,4.969q4.441,4.06,4.459,15.028a26.7,26.7,0,0,1-2.3,11.38,14.321,14.321,0,0,1-4.738,5.946,19.928,19.928,0,0,1-7.945,3.586,42.933,42.933,0,0,1-10.867,1.131H649.413a6.612,6.612,0,0,1-6.609-6.615h0a6.606,6.606,0,0,1,6.609-6.609h26a18.872,18.872,0,0,0,8.866-1.694,6.616,6.616,0,0,0,3.13-6.411v-1.534a7.815,7.815,0,0,0-1.646-4.616,8.955,8.955,0,0,0-3.95-2.046,23.434,23.434,0,0,0-5.291-.515H664.377a29.443,29.443,0,0,1-18.235-4.921q-6.423-4.922-6.417-16.512a26.683,26.683,0,0,1,1.945-10.459,16.707,16.707,0,0,1,5.33-7.125,20.983,20.983,0,0,1,7.8-3.539A41.237,41.237,0,0,1,665.564,241.972Z" transform="translate(-521.075 -241.957)" fill="#1877f2"/>
      <path id="Path_56341" data-name="Path 56341" d="M659.2,315.69h-1.812a6.612,6.612,0,0,1-6.094-9.18l25.41-60.5a6.609,6.609,0,0,1,6.094-4.054h7.646a6.618,6.618,0,0,1,6.082,4.018l25.834,60.5a6.615,6.615,0,0,1-6.082,9.206h-2.665a6.615,6.615,0,0,1-6.174-4.242l-5.138-13.395H670.2l-4.776,13.266A6.615,6.615,0,0,1,659.2,315.69Zm16.02-30.66h22.049L686.1,256.836Z" transform="translate(-465.936 -241.952)" fill="#1877f2"/>
      <g id="Group_20064" data-name="Group 20064" transform="translate(274.13 20.983)">
        <path id="Path_56342" data-name="Path 56342" d="M739.642,255.459a13.689,13.689,0,0,0-4.258-5.736,18.761,18.761,0,0,0-6.731-3.257,42.006,42.006,0,0,0-9.422-1H670.99a5.33,5.33,0,0,0-5.3,5.3v42.165a5.283,5.283,0,0,0,5.3,5.256H673.9a5.283,5.283,0,0,0,5.3-5.256v-36.3h16.98v36.3a5.244,5.244,0,0,0,5.25,5.256h3.432a5.286,5.286,0,0,0,5.3-5.256v-36.3h8.167a15.932,15.932,0,0,1,5.034.743,5.282,5.282,0,0,1,3.216,2.911,15.813,15.813,0,0,1,.956,6.251v26.4a5.283,5.283,0,0,0,5.292,5.256h3a5.283,5.283,0,0,0,5.3-5.256V264.707a25.566,25.566,0,0,0-1.475-9.248Z" transform="translate(-665.692 -245.464)" fill="#1877f2"/>
      </g>
      <g id="Group_20065" data-name="Group 20065" transform="translate(355.003 20.986)">
        <path id="Path_56343" data-name="Path 56343" d="M720.822,266.576h-26.4v-.222a10.559,10.559,0,0,1,1.869-6.6,7.325,7.325,0,0,1,4.258-3,28.4,28.4,0,0,1,7.207-.737h13.071a5.277,5.277,0,0,0,0-10.554H705.844a40.542,40.542,0,0,0-11.291,1.522,23.341,23.341,0,0,0-10.249,7.125c-3.34,3.731-5.076,9.68-5.076,17.672a27.629,27.629,0,0,0,6.556,19.248c4.341,4.738,11.075,7.166,20.062,7.166h14.981a5.277,5.277,0,0,0,0-10.554H707.674a36.127,36.127,0,0,1-7.43-.592,7.767,7.767,0,0,1-4.3-3.082,11.47,11.47,0,0,1-1.522-6.429v-.216h26.4a5.283,5.283,0,0,0,5.3-5.256v-.216a5.28,5.28,0,0,0-5.3-5.277Z" transform="translate(-679.196 -245.465)" fill="#1877f2"/>
      </g>
      <g id="Group_20066" data-name="Group 20066" transform="translate(410.158 0.016)">
        <path id="Path_56344" data-name="Path 56344" d="M698.62,241.962h-4.951a5.345,5.345,0,0,0-5.256,5.419v62.9a5.306,5.306,0,0,0,5.256,5.372h4.951a5.33,5.33,0,0,0,5.291-5.372v-62.9a5.381,5.381,0,0,0-5.292-5.419Z" transform="translate(-688.413 -241.962)" fill="#1877f2"/>
      </g>
      <g id="Group_20067" data-name="Group 20067" transform="translate(433.89 20.974)">
        <path id="Path_56345" data-name="Path 56345" d="M737.972,253.069a13.822,13.822,0,0,0-7.341-5.9,37.109,37.109,0,0,0-12.117-1.694H697.673a5.33,5.33,0,0,0-5.3,5.3v42.165a5.283,5.283,0,0,0,5.3,5.256h2.911a5.283,5.283,0,0,0,5.3-5.256V256.854h11.507a16.157,16.157,0,0,1,6.035.82,4.229,4.229,0,0,1,2.562,2.612,15.378,15.378,0,0,1,.651,3.168c.083.956.133,2,.133,3.083v26.4a5.283,5.283,0,0,0,5.292,5.256h3.216a5.283,5.283,0,0,0,5.3-5.256V264.716a22.256,22.256,0,0,0-2.6-11.647Z" transform="translate(-692.376 -245.46)" fill="#1877f2"/>
      </g>
      <g id="Group_20068" data-name="Group 20068" transform="translate(486.927 20.984)">
        <path id="Path_56346" data-name="Path 56346" d="M755.239,247.857a5.348,5.348,0,0,0-4.424-2.39h-3a5.309,5.309,0,0,0-4.9,3.257L728.579,283.64l-.216-.48L714.94,248.81a5.279,5.279,0,0,0-4.951-3.346h-3.474a5.182,5.182,0,0,0-4.383,2.348,5.252,5.252,0,0,0-.48,4.993L719.5,294.97a5.268,5.268,0,0,0,4.862,3.216h7.7a5.348,5.348,0,0,0,4.868-3.13l18.715-42.165a5.44,5.44,0,0,0-.405-5.034Z" transform="translate(-701.235 -245.464)" fill="#1877f2"/>
      </g>
      <g id="Group_20069" data-name="Group 20069" transform="translate(541.745 19.861)">
        <path id="Path_56347" data-name="Path 56347" d="M764.863,262.861a32.628,32.628,0,0,0-2.911-5.993,30.884,30.884,0,0,0-4.341-5.034,23.429,23.429,0,0,0-8.208-4.694,33.2,33.2,0,0,0-10.986-1.863,32.174,32.174,0,0,0-11.253,1.993,22.021,22.021,0,0,0-8.12,4.776A30.333,30.333,0,0,0,714.872,257a35.02,35.02,0,0,0-2.911,6.082,26.217,26.217,0,0,0-1.563,9.639,29.141,29.141,0,0,0,.521,5.647,39.48,39.48,0,0,0,2.073,6.811,21.066,21.066,0,0,0,5.256,7.64,24.831,24.831,0,0,0,9.159,5.472,32.576,32.576,0,0,0,10.992,1.957,29.947,29.947,0,0,0,5.626-.521,49.715,49.715,0,0,0,6.737-1.958,22.936,22.936,0,0,0,7.77-4.951,24.945,24.945,0,0,0,5.86-9.118,32.457,32.457,0,0,0,1.957-10.986,27.481,27.481,0,0,0-1.487-9.852Zm-13.855,17.507a12.313,12.313,0,0,1-4.776,6.251,13.569,13.569,0,0,1-8,2.561,17.529,17.529,0,0,1-2.514-.216,8.288,8.288,0,0,1-2.132-.61,12.93,12.93,0,0,1-6.811-6.035,20.277,20.277,0,0,1-2.173-9.381,21.974,21.974,0,0,1,.956-6.861,13.962,13.962,0,0,1,2.82-4.992,14.7,14.7,0,0,1,4.6-3.388,15.514,15.514,0,0,1,5.555-1.125,15.28,15.28,0,0,1,5.215,1.042,12.1,12.1,0,0,1,6.423,5.9,21.194,21.194,0,0,1,2,9.422,24.278,24.278,0,0,1-1.17,7.43Z" transform="translate(-710.389 -245.277)" fill="#1877f2"/>
      </g>
      <g id="Group_20070" data-name="Group 20070" transform="translate(606.311 1.188)">
        <path id="Path_56348" data-name="Path 56348" d="M730.248,242.194h-3.521a5.523,5.523,0,0,0-5.514,5.514v2.215a5.487,5.487,0,0,0,5.514,5.472h3.521a5.487,5.487,0,0,0,5.514-5.472v-2.215a5.523,5.523,0,0,0-5.514-5.514Zm0,19.582h-3.521a5.33,5.33,0,0,0-5.3,5.3v42.165a5.283,5.283,0,0,0,5.3,5.256h3.521a5.283,5.283,0,0,0,5.3-5.256V267.086A5.33,5.33,0,0,0,730.248,261.776Z" transform="translate(-720.997 -241.978)" fill="#1877f2"/>
        <path id="Path_56349" data-name="Path 56349" d="M730.427,242.158h-3.521a5.727,5.727,0,0,0-5.73,5.73V250.1a5.718,5.718,0,0,0,5.73,5.689h3.521a5.718,5.718,0,0,0,5.73-5.689v-2.215a5.727,5.727,0,0,0-5.73-5.73Zm5.3,7.945a5.283,5.283,0,0,1-5.3,5.256h-3.521a5.283,5.283,0,0,1-5.3-5.256v-2.215a5.33,5.33,0,0,1,5.3-5.3h3.521a5.33,5.33,0,0,1,5.3,5.3Z" transform="translate(-721.176 -242.158)" fill="#1877f2"/>
      </g>
      <g id="Group_20071" data-name="Group 20071" transform="translate(629.106 20.966)">
        <path id="Path_56350" data-name="Path 56350" d="M739.467,271.839c-.092,3.645.388,10.118,4.513,12.9a15.471,15.471,0,0,0,3.3,1.481,17.194,17.194,0,0,0,6.514.951H766.26a5.33,5.33,0,0,1,5.3,5.256v.521a5.283,5.283,0,0,1-5.3,5.256H752.875a47.227,47.227,0,0,1-7.728-.521l-.48-.089a24.885,24.885,0,0,1-4.646-1.125,22.7,22.7,0,0,1-7.166-4.442,24.679,24.679,0,0,1-7.293-13.118c-.175-.779-.3-1.646-.438-2.514a43.14,43.14,0,0,1-.13-4.563,44.22,44.22,0,0,1,.131-4.513c.13-.868.263-1.741.438-2.52a26.089,26.089,0,0,1,2.647-7.166,23.835,23.835,0,0,1,4.646-5.946,22.183,22.183,0,0,1,7.166-4.442,24.443,24.443,0,0,1,4.646-1.131l.48-.089a47.034,47.034,0,0,1,6.861-.563h14.243a5.312,5.312,0,0,1,5.3,5.256v.521a5.283,5.283,0,0,1-5.3,5.256H753.221a18.176,18.176,0,0,0-5.952.995,14.883,14.883,0,0,0-3.3,1.481C739.846,261.762,739.378,268.236,739.467,271.839Z" transform="translate(-724.98 -245.458)" fill="#1877f2"/>
      </g>
      <g id="Group_20072" data-name="Group 20072" transform="translate(683.483 20.986)">
        <path id="Path_56351" data-name="Path 56351" d="M775.7,266.576H749.3v-.222a10.3,10.3,0,0,1,1.868-6.6,7.177,7.177,0,0,1,4.255-3,28.373,28.373,0,0,1,7.208-.737H775.7a5.277,5.277,0,1,0,0-10.554H760.718a40.292,40.292,0,0,0-11.291,1.522,23.112,23.112,0,0,0-10.249,7.125c-3.387,3.731-5.084,9.68-5.084,17.672a27.606,27.606,0,0,0,6.562,19.248c4.341,4.738,11.069,7.166,20.062,7.166H775.7a5.277,5.277,0,0,0,0-10.554H762.536a36.057,36.057,0,0,1-7.424-.592,7.584,7.584,0,0,1-4.3-3.083,11.415,11.415,0,0,1-1.522-6.429v-.216h26.4a5.247,5.247,0,0,0,5.256-5.256v-.216a5.244,5.244,0,0,0-5.254-5.277Z" transform="translate(-734.061 -245.465)" fill="#1877f2"/>
      </g>
    </g>
    <g id="Group_20079" data-name="Group 20079" transform="translate(6004.343 2388)">
      <path id="Path_56335" data-name="Path 56335" d="M591.921,327.021a38.765,38.765,0,0,0,54.6-.234l71.321-71.3c.45-.459.918-.888,1.395-1.3a27.311,27.311,0,0,1,38.54,38.522l-70.675,70.666c-.616.693-1.27,1.377-1.934,2.04a54.619,54.619,0,0,1-93.251-38.4Z" transform="translate(-541.536 -192.58)" fill="#1877f2"/>
      <path id="Path_56336" data-name="Path 56336" d="M589.011,308.523a32.034,32.034,0,0,0,45.132-.2l57.5-57.465c.37-.37.761-.731,1.152-1.063a22.576,22.576,0,0,1,31.863,31.842L667.693,338.57c-.509.577-1.045,1.134-1.6,1.688a45.147,45.147,0,0,1-77.083-31.735Z" transform="translate(-567.06 -220.893)" fill="#1492e6"/>
      <path id="Path_56337" data-name="Path 56337" d="M586.761,289.473a25.333,25.333,0,0,0,35.7-.157L664.723,247.1a10.783,10.783,0,0,1,.918-.85,17.859,17.859,0,0,1,25.2,25.194L649,313.251c-.4.45-.829.888-1.259,1.327a35.709,35.709,0,0,1-60.98-25.1Z" transform="translate(-586.761 -241.848)" fill="#70bcee"/>
    </g>
  </g>
</svg>
